<?xml version="1.0" encoding="utf-8"?>
<!-- Generator: Adobe Illustrator 26.3.0, SVG Export Plug-In . SVG Version: 6.00 Build 0)  -->
<svg version="1.1" id="Layer_1" xmlns="http://www.w3.org/2000/svg" xmlns:xlink="http://www.w3.org/1999/xlink" x="0px" y="0px"
	 viewBox="0 0 750 350" style="enable-background:new 0 0 750 350;" xml:space="preserve">
<style type="text/css">
	.st0{fill:#FEFEFE;}
</style>
<path class="st0" d="M377.9,31.3c3.8,0,7.7,0,11.5-0.1c14.9,0,27.6,1.5,41.6,6.8c1.2,0.4,2.5,0.8,3.7,1.3
	C448.3,43.9,461.9,52,473,61c0,0.7,0,1.3,0,2c0.5,0.2,1.1,0.5,1.6,0.7c3.1,1.7,5.5,4,8.1,6.4c0.5,0.5,1.1,1,1.6,1.5
	c4,3.7,7.6,7.6,11,11.8c1.6,1.9,1.6,1.9,4.6,2.7c0.3-1,0.7-2,1-3c5.7-2.8,12.2-3,18.3-1.4c5.9,2.3,10.5,6.2,15.3,10.3
	c0.8,0.7,1.6,1.4,2.5,2.1c0.6,0.5,1.1,1.1,1.7,1.6c3.6,2.2,7.7,3,11.8,4.1c9.4,2.7,16.8,6.1,24.7,11.9c5.5,4,10.8,5.7,17.4,7.4
	c4.6,1.4,8.4,3.4,12.4,6c0.7,0.4,1.4,0.9,2.1,1.3c1.3,0.8,2.6,1.6,3.9,2.5c0.6,0.4,1.3,0.8,1.9,1.2c1.1,0.8,1.1,0.8,2.3,1.5
	c3.3,1.8,6.6,2.6,10.2,3.3c16.8,4,31.4,11.5,45.3,21.6c7,4.8,15.5,8.6,24.2,7.5c4-1.4,7.1-3.1,10.1-6.1c1.7-5.1,1.1-10.1-1-15.1
	c-2.7-4.6-6.1-7.9-10.3-11.2c-1.8-1.6-1.8-1.6-2.8-3.8c-0.9-2.2-0.9-2.2-3.9-2.9c0-0.7,0-1.3,0-2c-0.7,0-1.3,0-2,0c-4-4-6-8.5-7-14
	c0.8-5.1,2.3-8.4,6-12c6-3.9,12.4-6.4,19.2-8.7c1.7-0.6,3.5-1.2,5.2-1.8c0.8-0.3,1.6-0.5,2.4-0.8c2.4-0.8,4.8-1.8,7.1-2.7
	c2.8,2.8,2.3,4.8,2.3,8.8c0,1.2,0,2.4,0.1,3.7c-0.5,5.3-2.3,8.5-5.9,12.2c-3.4,2.6-7.1,4-11.1,5.5c-2.2,0.8-4.3,1.8-6.4,2.9
	c0.7,0.7,1.4,1.4,2.2,2.2c0.9,0.9,1.9,1.9,2.8,2.8c0.9,0.9,1.8,1.8,2.7,2.7c8.3,8.6,15,17.3,15.4,29.8c-0.3,7.7-2.8,12.9-8.1,18.5
	c-4.8,4-4.8,4-8,4c-0.3,0.7-0.7,1.3-1,2c-5.2,1.9-9.2,2.1-14.8,1.7c-1.3-0.1-2.6-0.2-3.9-0.3C681,179,681,179,678,178
	c0.3,0.9,0.7,1.8,1,2.8c2.2,8,1.5,15.7-1.4,23.3c-0.9,2.7-0.8,4.4,0.4,6.9c3.1,2,5.9,2.3,9.5,2.8c5.2,0.9,5.2,0.9,8,3.8
	c1.6,3.7,2.7,7.3,3.7,11.2c1,3.1,2.5,5,4.8,7.3c0.7,0.8,1.5,1.6,2.2,2.4c6.3,6.2,6.3,6.2,13.6,11c3.5,2.6,4.3,6.4,5.2,10.6
	c0.2,3.1,0.2,3.1,0,5c-4.6,2.1-8.6,3.6-13.6,2.2c-3.7-1.4-5.3-3.2-7.6-6.4c-1.6-2.2-1.6-2.2-3.8-3.8c-3.2-0.1-3.2-0.1-6.6,0.5
	c-8.8,1.2-13.5-2.5-20.4-7.5c-9.1-6-20-5.2-30.6-4.8c-2.8-0.2-4.8-1-7.4-2.2c-0.7-0.3-1.5-0.6-2.2-1c-7.2-3.6-11-8.3-13.8-15.8
	c-1.4-4.8-2.4-9.2-2-14.2c1.7-0.3,3.3-0.7,5-1c0.8,1.4,0.8,1.4,1.7,2.9c5.1,8.4,9.4,14.9,18.9,18.5c3.6,0.6,6.8,0.8,10.4,0.6
	c-0.9-0.1-0.9-0.1-1.9-0.3c-10.9-1.9-16.5-4.9-23-14.1c-3.7-6-5.4-12.8-7.1-19.6c-0.2,0.6-0.5,1.2-0.7,1.8
	c-2.3,5.4-4.1,9.4-9.4,12.4c-5.2,1.5-10.7,2.5-15.9,0.8c-7.3-0.4-14.2,0-21.4,1.5c-7.2,1.4-14.3,1.6-21.6,1.5
	c-0.3-0.8-0.6-1.6-0.9-2.4c-0.8-2.5-0.8-2.5-2.1-3.6c-0.7,1.1-1.4,2.2-2.2,3.3c-2.2,3.1-4.3,5.1-7.8,6.7c-0.7,0-1.3,0-2,0
	c-0.3,0.7-0.7,1.3-1,2c-0.7,0.4-1.4,0.8-2.2,1.2c-3.7,2.4-6.5,5.1-8.8,8.8c-0.3,2.8-0.3,2.8,1,5c3.3,3.1,6.3,3.6,10.8,4.2
	c1.2,0.2,2.3,0.3,3.5,0.5c0.9,0.1,1.8,0.2,2.7,0.3c0.3-0.9,0.6-1.8,0.9-2.8c1.4-4,3.2-8.2,7.1-10.2c2.9-0.1,5.7-0.1,8.6-0.1
	c1.2,0,1.2,0,2.4,0c5.9,0,5.9,0,7,1.1c-0.2,6.3-1.3,9.5-6,14c-1.2,0.7-2.4,1.3-3.6,1.9c-3.8,2-4.9,4.5-6.6,8.3
	c-1.2,2.6-2.3,3.6-4.9,4.8c-7,1.7-12.2,0.1-19-2c-1.1-0.3-2.2-0.6-3.4-1c-9.6-2.8-9.6-2.8-13.2-5.4c-2.2-1.9-2.2-1.9-4.3-1.7
	c-3.3,1.5-4.8,4.4-6.8,7.3c-3.4,5-7,9.9-10.9,14.6c-0.8,1-1.6,2-2.5,3c-0.7,0.7-1.3,1.4-2,2.1c-0.7,0-1.3,0-2,0
	c-0.2,0.6-0.4,1.1-0.7,1.7c-11.3,19.5-45.2,31.7-65.3,37.4c-13.2,3.5-26.5,3.7-40.1,3.8c-0.9,0-1.8,0-2.7,0.1
	c-5.4,0.1-10.5-0.4-15.9-1.4c-0.7-0.1-1.5-0.3-2.2-0.4c-1.4-0.3-2.9-0.6-4.3-0.8c-1.4-0.3-2.9-0.5-4.4-0.8
	c-13.8-2.6-26.4-8.7-38.5-15.6c-1.8-1-3.6-2-5.4-3c-1.2-0.7-2.4-1.3-3.6-2c0-0.7,0-1.3,0-2c-0.5-0.3-1.1-0.5-1.7-0.8
	c-6.7-3.5-13.4-8.5-18.3-14.2c0-0.7,0-1.3,0-2c-0.6-0.3-1.3-0.5-1.9-0.8C277,275,277,275,276,272c-1-0.3-2-0.7-3-1
	c-5.4-5.8-10.5-12.9-14-20c-4.6,0-9.2,0-14,0c-0.3,0.7-0.7,1.3-1,2c-1,0-2,0-3,0c-0.3,0.7-0.7,1.3-1,2c-7.6,3.6-18.5,7.6-26.9,6
	c-4.4-2.2-7.1-6.2-10.1-10c-2.2-2.5-3.7-3.4-6.9-4.2c-4-1.4-6-3.2-8.2-6.8c-1.5-3.3-1.7-6.4-1.9-10c5.7-4,11.2-3.9,18-3
	c5.4,3,8.2,7.8,11.6,12.9c1.2,2,1.2,2,2.4,3.1c6.2,0.4,10.3-0.6,16-3c1.1-5.4,1.1-5.4-0.1-10.7c-4-4.8-8.8-7.8-14.1-11.2
	c-5-3.2-7.6-5.7-9.9-11.1c-0.2,0.9-0.4,1.9-0.6,2.9c-1.4,3.1-1.4,3.1-4.4,4.6c-6.2,1.3-12.8-0.1-19-1c-7.9-0.9-15.9-0.4-23.8-0.2
	c-1.3,0-2.5,0-3.8,0c-1.1,0-2.3,0-3.4,0.1c-3.5-0.4-5.3-1.2-8.1-3.3c-1.1-2.5-1.1-2.5-1.8-5.2c-0.2-0.9-0.5-1.8-0.7-2.7
	c-0.2-0.7-0.3-1.4-0.5-2.1c-0.3,0.8-0.5,1.6-0.8,2.5c-3.6,10.4-9.2,19.1-19,24.6c-4.6,1.8-9.4,2.3-14.2,2.9
	c-0.8,0.1-1.7,0.2-2.5,0.3c-1.8,0.2-3.6,0.5-5.5,0.7c12.2,0.3,22.1-0.1,32-8c3.2-3.5,6.2-7.2,9-11c4.9,0.9,4.9,0.9,6,2
	c1.1,6.5-1.6,10.1-5.1,15.4c-1.8,2.4-3.6,4.5-5.9,6.6c-0.7,0-1.3,0-2,0c-0.3,0.7-0.7,1.3-1,2c-10.5,6.4-19,7.8-31,6
	c-0.9-0.2-1.7-0.5-2.6-0.8c-6-0.6-10.9,3-15.5,6.3c-4.5,3.2-7.9,5.5-13.6,5.4c-6.4,0-6.4,0-11.8,3.2c-1.5,1.8-3,3.6-4.4,5.5
	c-2.5,2.8-4.3,3.8-8,4.4c-4.8-0.1-9.6-0.6-13.1-4c-0.6-2.1-0.6-2.1-1-4c-0.4,0.8-0.8,1.6-1.2,2.4c-1.8,2.6-1.8,2.6-4.2,3.5
	c-3,0.1-4.9-0.6-7.6-1.9c1.2-15.2,1.2-15.2,6-20c3.2-0.5,4.6-0.3,7.3,1.6c2.3,3.3,2,5.6,1.7,9.4c0.5-0.9,1.1-1.9,1.6-2.9
	c2.7-3.5,4.2-4.2,8.4-5.1c0-0.7,0-1.3,0-2c3-3.5,6.2-5.9,10.1-8.4c6.2-4.2,8.9-8.7,11-15.7c1.2-2.5,2.5-3.4,4.9-4.8
	c2.8-0.6,2.8-0.6,5.8-0.9c5.3-0.8,8.9-1.8,13.2-5.1c1.2-1.8,1.2-1.8,1-4c-0.3-0.9-0.6-1.7-0.9-2.6c-1.2-3.8-2-7.5-2.7-11.4
	c-0.2-1-0.2-1-0.4-2.1c-0.7-3.7-1.1-7.1-1-10.8c-1.6,0.3-1.6,0.3-3.3,0.5c-8.6,1.2-16.1,1.9-24.7-0.5c0-0.7,0-1.3,0-2
	c-0.9-0.2-0.9-0.2-1.8-0.4c-2.3-0.6-4.2-1.5-6.2-2.6c0-0.7,0-1.3,0-2c-0.7,0-1.3,0-2,0c-5.8-6.8-8.4-15.3-8-24.1
	c1.4-11.2,10.1-20.1,18.6-27c1.5-1.1,3.1-2.3,4.7-3.3c2-1.8,2.3-2.9,2.7-5.5c-0.9,0.1-1.9,0.1-2.8,0.2c-6.5,0-13.6-1.5-18.7-5.6
	c-6.2-6.3-7.7-11.6-7.8-20.4C38,84,38,84,40,82c4.8-0.8,7.2,1.3,11,4c5.6,2.6,11,4.1,17,5.4c5.5,1.3,10.5,3.1,14.5,7.3
	C85,103.1,86,107,85,112c-1.9,5-5.1,8.4-9,12c-1.3,1.3-2.5,2.6-3.8,3.9c-2.7,2.7-5.5,5.2-8.4,7.7c-4.3,3.7-7.2,7-8.1,12.9
	c-0.3,5.7,0.5,9.1,4.4,13.5c4.2,3.7,8,4.4,13.4,4.3c11.3-1.2,20.9-8.3,29.8-14.8c10.5-7.5,18.8-11.3,31.5-13.3
	c10.7-1.8,18.2-7.4,26.5-14c6.7-4.8,13.1-6.5,21.1-7.8c5.8-1,8.9-2.6,13.1-6.9c5.4-5.3,11-7.7,18.1-9.9c10-3.3,19.2-7.5,28.3-12.9
	c6.5-3.5,13.1-4.5,20.5-3.3c2.3,0.4,4.4,0.7,6.7,0.6c2-1.8,2-1.8,3-4c0.7,0,1.3,0,2,0c0.2-0.5,0.4-1.1,0.7-1.6
	c1.8-3.2,4.3-5.6,6.8-8.1c0.5-0.5,1.1-1.1,1.6-1.6c14.1-13.7,31.3-24,49.9-30.3c2.4-0.8,4.8-1.7,7.2-2.7
	C352.5,31,364.8,31.2,377.9,31.3z M351,45c-0.9,0.2-1.9,0.5-2.8,0.7c-18,4.6-34,12.1-48.2,24.3c-1,0.9-2.1,1.7-3.1,2.6
	c-6.5,5.4-12.5,10.9-17.9,17.4c1.3,3,2.6,4.8,5.1,6.9c0.9,0.8,0.9,0.8,1.9,1.6c0.7,0.6,1.3,1.1,2,1.7c0.7,0.6,1.3,1.1,2,1.7
	c4,3.4,8,6.7,12.1,9.9c3.6,2.9,6.7,5.8,9.5,9.4c1.5,1.8,1.5,1.8,3.7,3.9c12.1,12.4,20.2,25,22.5,42.2c1.3,8.8,3.8,17.1,6.5,25.5
	c0.6,1.8,1.1,3.7,1.7,5.5c1.9,6.1,4.6,9.8,9,14.4c2.1,2.4,3.5,4.7,5,7.4c2.8,4.9,6.1,8.1,11,10.8c0.7,0,1.3,0,2,0c0,1.6,0,3.3,0,5
	c-7.3,0.6-13-1.6-18.7-6.2c-2.6-3.2-4.8-6.5-7-9.9c-1.2-2-1.2-2-3.3-2.9c0.3,0.7,0.6,1.4,0.9,2.2c0.7,1.8,1.4,3.5,2,5.3
	c3.2,8.9,8,12.1,16.1,16.5c-0.3,1.6-0.7,3.3-1,5c-7-0.4-13.3-1.7-20-4c0-0.7,0-1.3,0-2c-1.6-1.6-1.6-1.6-3.8-3.2
	c-0.7-0.6-1.4-1.1-2.1-1.7c-2-1.3-2-1.3-4.2-0.9c-2.2,0.8-2.2,0.8-4.7,2.7c-4.7,3-8.3,4.4-13.8,3.5c-4.9-0.7-8.8,0.5-13.4,2
	c-14.1,4.3-14.1,4.3-21.9,2.6c-0.4-1.9-0.7-3.7-1.1-5.6c-0.2-1-0.4-2.1-0.6-3.2c-0.4-3.3,0-6,0.7-9.2c-0.7,0-1.3,0-2,0
	c0.6-4.2,1.4-8.1,3-12c1-0.3,2-0.7,3-1c0-1,0-2,0-3c0.7,0,1.3,0,2,0c2.4-4.3,2.4-4.3,3-9c-7-0.2-13.6,0.3-20.5,1.6
	C263,204,263,204,260,204c0.5-3.5,1.6-6.3,3.1-9.4c1.7-3.7,2.4-6.4,1.9-10.6c-2.3,3.4-3.9,6.9-5.7,10.6c-2,3.6-3.4,5.1-7.3,6.4
	c0,0.7,0,1.3,0,2c3,1,5.9,2,9,3c0.1,0.7,0.2,1.4,0.3,2.1c0.9,3.6,2.5,6.7,4.2,10c4.9,9.4,4.9,9.4,3.9,12.9c-0.3,0.6-0.6,1.3-0.9,1.9
	c-1.4,3.6-2.2,6.2-1.6,10.1c5.9,9.4,12.9,18.4,21,26c0.8,0.8,1.6,1.6,2.4,2.5c14.4,14,31.4,24.5,50.6,30.5c1.1,0.3,2.1,0.7,3.2,1.1
	c33.9,10.5,70.4,6,101.5-10.3c1.1-0.6,2.2-1.1,3.3-1.7c1.3-0.7,2.7-1.3,4-2c0-0.7,0-1.3,0-2c0.5-0.1,1.1-0.2,1.6-0.2
	c3.3-1.1,5.6-3,8.3-5.1c1-0.8,2-1.6,3.1-2.4c8.2-6.4,14.6-13.1,21-21.3c0.4-0.6,0.9-1.1,1.4-1.7c5.8-6.8,5.8-6.8,9.1-14.9
	c-0.3-2.3-0.7-4.2-1.4-6.4c-1.6-6.9-0.3-10.8,3-17c0.5-1,1-1.9,1.5-2.9c4.1-7.7,4.1-7.7,6.5-10.1c2.6-0.6,2.6-0.6,5-1c0-1,0-2,0-3
	c-0.7,0-1.3,0-2,0c-0.2-0.5-0.5-1-0.8-1.6c-1.3-2.6-1.3-2.6-3.2-5.4c-4-6.8-5.2-15.2-6.1-23c-0.7,0-1.3,0-2,0
	c0.2,8.7,1.7,15.8,4.9,23.9c1,2.9,1.3,5,1.1,8.1c-8.8,2.5-16.1,1.2-24-3c-1.7-0.7-3.3-1.4-5-2c0.3,0.6,0.6,1.2,0.9,1.9
	c0.7,1.4,1.4,2.8,2.1,4.1c0.7,0,1.3,0,2,0c0.2,0.7,0.5,1.3,0.8,2c1,2.3,2,4.6,3.1,6.8c0.3,0.7,0.7,1.4,1,2.1
	c0.7,1.4,1.5,2.9,2.3,4.3c0.4,0.7,0.7,1.4,1.1,2.1c0.3,0.6,0.7,1.2,1.1,1.9c0.8,2.4,0.7,3.5-0.4,5.9c-0.7,0.3-1.3,0.6-2,0.9
	c-2.2,0.9-2.2,0.9-2.7,3.3c-0.1,0.9-0.2,1.8-0.3,2.7c-0.6,4.6-0.6,4.6-2.3,6.9c-2.8,2.1-5.2,1.5-8.6,1.2c-4.4-1.1-8.7-2.5-12.9-4.1
	c-3.3-1-5.9-1-9.4-0.8c-5.9,0.1-10.2-0.8-15.7-3.1c0-0.7,0-1.3,0-2c-2,0-4,0-6,0c-0.3,1-0.7,2-1,3c-1.3,0.7-2.7,1.4-4,2
	c-1.1,0.8-2.3,1.7-3.4,2.5c-5.2,3.8-10.3,4.7-16.6,5.5c0.2-2.8,0.2-2.8,1-6c1.7-1.3,3.3-2.7,5-4c2.7-4.1,5-8.2,6-13
	c-2.7,2.6-5.2,5.2-7.5,8.1c-4,4.6-7.5,6.4-13.5,6.9c-2.4-0.4-2.4-0.4-4-1c1.4-4.5,3.3-6.2,7-9c0-0.7,0-1.3,0-2c1.3-0.7,2.6-1.3,4-2
	c0-0.7,0-1.3,0-2c1-0.3,2-0.7,3-1c1.5-2.4,2.7-4.7,3.9-7.2c0.4-0.7,0.7-1.5,1.1-2.2c3-6.3,5.2-12.7,7-19.6c0.2-0.6,0.3-1.3,0.5-1.9
	c1.5-5.8,2.9-11.6,4.3-17.4c1.5-6.5,3.5-12.6,6.2-18.7c0.4-0.9,0.4-0.9,0.8-1.8c6.5-14.3,15.5-25.6,28.5-34.8
	c0.6-0.5,1.1-0.9,1.7-1.4c0-0.7,0-1.3,0-2c0.7-0.2,1.3-0.4,2-0.6c4-1.8,7.3-4.4,10.8-7c0.7-0.5,1.4-1.1,2.1-1.6
	c4.9-3.7,9.6-7.5,14-11.7c-2.2-4.2-5.1-7.2-8.5-10.4C478,82,478,82,477,80c-0.7,0-1.3,0-2,0c0-0.7,0-1.3,0-2c-1.6-0.7-3.3-1.3-5-2
	c0-0.7,0-1.3,0-2c-0.7,0-1.3,0-2,0c0-0.7,0-1.3,0-2c-3.6-3-3.6-3-8-4c-0.3-1-0.7-2-1-3c-2.4-1.6-4.7-3.1-7.2-4.5
	c-0.7-0.4-1.3-0.8-2-1.2c-13.9-8.1-28.7-13.5-44.7-15.8c-2.7-0.4-5.2-1-7.9-1.5C381.8,38.9,366.1,41.1,351,45z M499.3,119.6
	c-4.7,5.1-4.7,5.1-7.3,11.4c0.3,1.3,0.6,2.7,1,4c0.5-0.6,0.9-1.2,1.4-1.8c0.6-0.8,1.2-1.6,1.9-2.4c0.6-0.8,1.3-1.6,1.9-2.5
	c1.4-1.8,2.8-3.5,4.3-5.2c0.5-0.7,1-1.4,1.5-2.1c-0.3-1-0.7-2-1-3C500.9,117.8,500.9,117.8,499.3,119.6z M261,124
	c0.6,6,2.9,11.4,5,17c0.7,0,1.3,0,2,0c0.3-5.9-0.1-9.8-3-15C263,124.5,263,124.5,261,124z M312,175c-1.5,2.9-2,4.7-2,8
	c0.7-0.4,1.4-0.7,2.2-1.1c3.2-1.1,4.7-1,7.8,0.1c1.7,1.6,1.7,1.6,3,3c0.7,0,1.3,0,2,0c0.7,3.6,1.3,7.3,2,11c0.7-0.3,1.3-0.7,2-1
	c0.5-6.7-0.2-10.5-4-16c-0.7,0-1.3,0-2,0c-0.2-0.6-0.5-1.2-0.8-1.9c-1.5-2.5-2.6-3.1-5.2-4.1C315,173,313.7,173.9,312,175z
	 M448.3,176.5c-0.6,0.7-1.1,1.4-1.7,2.1c-0.9,1.1-0.9,1.1-1.8,2.2c-0.6,0.7-1.1,1.4-1.7,2.1c-0.5,0.5-1,1-1.5,1.6
	c-3.8,4-4.7,8.1-5.5,13.4c0.7,0,1.3,0,2,0c0.5-1.2,1-2.4,1.6-3.6c2.3-4.5,5.1-7.7,9.4-10.4c3.4-1.1,5-1.4,8.4-0.1
	c0.5,0.4,1.1,0.7,1.6,1.1c-1.3-4.1-1.3-4.1-3-8c-0.7,0-1.3,0-2,0c0-0.7,0-1.3,0-2C450.1,174.6,450.1,174.6,448.3,176.5z
	 M309.8,221.9c-2,1.9-2,1.9-1.8,4.1c2,0,4,0,6,0c1.3-1.1,1.3-1.1,1.1-3.6c0-0.8,0-1.6-0.1-2.4C311.9,219.7,311.9,219.7,309.8,221.9z
	 M450,221c0.4,3.3,0.4,3.3,2,6c1.7,0,3.3,0,5,0c-0.3-1.3-0.7-2.6-1-4c-0.7,0-1.3,0-2,0c0-0.7,0-1.3,0-2C452.7,221,451.4,221,450,221
	z M85.3,232.8c-5.1,1.8-9.1,4.8-13.3,8.2c3.7,0,5.4-1.1,8.6-2.8c5.1-2.6,9.9-4.6,15.4-6.2C92.5,230.2,88.9,231.9,85.3,232.8z"/>
<path class="st0" d="M735,245c1.6,2.6,2.3,4.2,3,7c0.2,0.8,0.5,1.7,0.7,2.5c1.7,6.7,1.7,6.7,0.1,9.7c-1.8,1.7-1.8,1.7-3.8,2.1
	c-2-0.1-4-0.3-6-0.4c-1-2.7-2-5.3-3-8c-0.6-1.6-0.6-1.6-1.2-3.2c-0.8-2.9-1.3-4.9-0.8-7.8C727.2,243.1,730.5,243.5,735,245z"/>
<path class="st0" d="M228,225c4.9,8.7,4.9,8.7,4,13c-1.3,2.2-2.4,2.8-4.8,3.6c-2.2,0.4-4,0.6-6.2,0.4c-3.4-2.6-5.3-5.2-7-9
	c-0.7-0.7-1.3-1.3-2-2c0.4-2.6,0.4-2.6,1-5C218.1,225,222.9,224.9,228,225z"/>
<path class="st0" d="M534,226.8c1.2,0,2.3,0,3.6,0c1.8,0,1.8,0,3.6,0c2.9,0.2,2.9,0.2,3.9,1.2c0.5,6.3-0.1,9.1-4,14
	c-4.3-0.2-7.9-0.3-11.6-2.6c-2.1-3.8-1.3-6.2-0.4-10.4C531,227,531,227,534,226.8z"/>
<path class="st0" d="M720,232c3.5,2.4,6.6,4.4,7.7,8.6c-0.9,3.2-2,4.4-4.7,6.4c-3.2,0.4-5,0-8-1c0-0.7,0-1.3,0-2c-0.7,0-1.3,0-2,0
	c-4.2-7-4.2-7-3.4-10.9C712.6,228.7,715.8,230.1,720,232z"/>
<path class="st0" d="M49,230c2,3,2,3,1.9,5.2c-1.3,3.8-3,6.9-5.9,9.8c-4,1.1-6.1,1.3-10,0c-1.5-3-1.6-4.6-1-8
	C38.3,232.8,42.9,229.4,49,230z"/>
<path class="st0" d="M-68,32"/>
<path class="st0" d="M-68,32"/>
<path class="st0" d="M-68,32"/>
<path class="st0" d="M-68,32"/>
<path class="st0" d="M-68,32"/>
</svg>
